<svg xmlns="http://www.w3.org/900/svg">
  <defs>
    <!-- R Move -->
    <symbol id="R" viewBox="0 0 64 90">
      <text x="32" y="13" font-size="26" text-anchor="middle" dominant-baseline="middle">R</text>

      <rect x="1" y="24" width="62" height="62" rx="5" ry="5" fill="white" stroke="black" stroke-width="2"/>

      <line x1="21.3" y1="25.1" x2="21.3" y2="85" stroke="lightgray" stroke-width="1" />
      <line x1="42.6" y1="25.1" x2="42.6" y2="85" stroke="lightgray" stroke-width="1" />
      <line x1="2" y1="45.1" x2="61.9" y2="45.1" stroke="lightgray" stroke-width="1" />
      <line x1="2" y1="65" x2="61.9" y2="65" stroke="lightgray" stroke-width="1" />
      <line x1="12" y1="34.5" x2="12" y2="75.5" stroke="black" stroke-width="3" />
      <line x1="32.0" y1="34.5" x2="32.0" y2="75.5" stroke="black" stroke-width="3" />
      <line x1="52.0" y1="34.5" x2="52.0" y2="75.5" stroke="black" stroke-width="3" />
      <polygon points="52.0,30 46.0,40 58.0,40" fill="black" />
    </symbol>

    <!-- R' Move -->
    <symbol id="R-prime" viewBox="0 0 64 90">
      <text x="32" y="13" font-size="26" text-anchor="middle" dominant-baseline="middle">R'</text>
      <rect x="1" y="24" width="62" height="62" rx="5" ry="5" fill="white" stroke="black" stroke-width="2"/>
      <line x1="21.3" y1="25.1" x2="21.3" y2="85" stroke="lightgray" stroke-width="1" />
      <line x1="42.6" y1="25.1" x2="42.6" y2="85" stroke="lightgray" stroke-width="1" />
      <line x1="2" y1="45.1" x2="61.9" y2="45.1" stroke="lightgray" stroke-width="1" />
      <line x1="2" y1="65" x2="61.9" y2="65" stroke="lightgray" stroke-width="1" />
      <line x1="12" y1="34.5" x2="12" y2="75.5" stroke="black" stroke-width="3" />
      <line x1="32.0" y1="34.5" x2="32.0" y2="75.5" stroke="black" stroke-width="3" />
      <line x1="52.0" y1="34.5" x2="52.0" y2="75.5" stroke="black" stroke-width="3" />
      <polygon points="52.0,78 46.0,68 58.0,68" fill="black" />
    </symbol>

    <!-- R2 Move -->
    <symbol id="R2" viewBox="0 0 64 90">
      <text x="32" y="13" font-size="26" text-anchor="middle" dominant-baseline="middle">R2</text>
      <rect x="1" y="24" width="62" height="62" rx="5" ry="5" fill="white" stroke="black" stroke-width="2"/>

      <line x1="21.3" y1="25.1" x2="21.3" y2="85" stroke="lightgray" stroke-width="1" />
      <line x1="42.6" y1="25.1" x2="42.6" y2="85" stroke="lightgray" stroke-width="1" />
      <line x1="2" y1="45.1" x2="61.9" y2="45.1" stroke="lightgray" stroke-width="1" />
      <line x1="2" y1="65" x2="61.9" y2="65" stroke="lightgray" stroke-width="1" />
      <line x1="12" y1="34.5" x2="12" y2="75.5" stroke="black" stroke-width="3" />
      <line x1="32.0" y1="34.5" x2="32.0" y2="75.5" stroke="black" stroke-width="3" />
      <line x1="52.0" y1="34.5" x2="52.0" y2="75.5" stroke="black" stroke-width="3" />
      <polygon points="52.0,30 46.0,40 58.0,40" fill="black" />

      <polygon points="52.0,38 46.0,48 58.0,48" fill="black" />
    </symbol>

    <!-- L Move -->
    <symbol id="L" viewBox="0 0 64 90">
      <text x="32" y="13" font-size="26" text-anchor="middle" dominant-baseline="middle">L</text>
      <rect x="1" y="24" width="62" height="62" rx="5" ry="5" fill="white" stroke="black" stroke-width="2"/>
      <line x1="21.3" y1="25.1" x2="21.3" y2="85" stroke="lightgray" stroke-width="1" />
      <line x1="42.6" y1="25.1" x2="42.6" y2="85" stroke="lightgray" stroke-width="1" />
      <line x1="2" y1="45.1" x2="61.9" y2="45.1" stroke="lightgray" stroke-width="1" />
      <line x1="2" y1="65" x2="61.9" y2="65" stroke="lightgray" stroke-width="1" />
      <line x1="12" y1="34.5" x2="12" y2="75.5" stroke="black" stroke-width="3" />
      <line x1="32.0" y1="34.5" x2="32.0" y2="75.5" stroke="black" stroke-width="3" />
      <line x1="52.0" y1="34.5" x2="52.0" y2="75.5" stroke="black" stroke-width="3" />
      <polygon points="12,78 6,68 18,68" fill="black" />
    </symbol>

    <!-- L' Move -->
    <symbol id="L-prime" viewBox="0 0 64 90">
      <text x="32" y="13" font-size="26" text-anchor="middle" dominant-baseline="middle">L'</text>
      <rect x="1" y="24" width="62" height="62" rx="5" ry="5" fill="white" stroke="black" stroke-width="2"/>
      <line x1="21.3" y1="25.1" x2="21.3" y2="85" stroke="lightgray" stroke-width="1" />
      <line x1="42.6" y1="25.1" x2="42.6" y2="85" stroke="lightgray" stroke-width="1" />
      <line x1="2" y1="45.1" x2="61.9" y2="45.1" stroke="lightgray" stroke-width="1" />
      <line x1="2" y1="65" x2="61.9" y2="65" stroke="lightgray" stroke-width="1" />
      <line x1="12" y1="34.5" x2="12" y2="75.5" stroke="black" stroke-width="3" />
      <line x1="32.0" y1="34.5" x2="32.0" y2="75.5" stroke="black" stroke-width="3" />
      <line x1="52.0" y1="34.5" x2="52.0" y2="75.5" stroke="black" stroke-width="3" />
      <polygon points="12,30 6,40 18,40" fill="black" />
    </symbol>

    <!-- L2 Move -->
    <symbol id="L2" viewBox="0 0 64 90">
      <text x="32" y="13" font-size="26" text-anchor="middle" dominant-baseline="middle">L2</text>
      <rect x="1" y="24" width="62" height="62" rx="5" ry="5" fill="white" stroke="black" stroke-width="2"/>
      <line x1="21.3" y1="25.1" x2="21.3" y2="85" stroke="lightgray" stroke-width="1" />
      <line x1="42.6" y1="25.1" x2="42.6" y2="85" stroke="lightgray" stroke-width="1" />
      <line x1="2" y1="45.1" x2="61.9" y2="45.1" stroke="lightgray" stroke-width="1" />
      <line x1="2" y1="65" x2="61.9" y2="65" stroke="lightgray" stroke-width="1" />
      <line x1="12" y1="34.5" x2="12" y2="75.5" stroke="black" stroke-width="3" />
      <line x1="32.0" y1="34.5" x2="32.0" y2="75.5" stroke="black" stroke-width="3" />
      <line x1="52.0" y1="34.5" x2="52.0" y2="75.5" stroke="black" stroke-width="3" />
      <polygon points="12,30 6,40 18,40" fill="black" />
      <polygon points="12,38 6,48 18,48" fill="black" />
    </symbol>

    <!-- U Move - CORRIGÉ (flèche à gauche) -->
    <symbol id="U" viewBox="0 0 64 90">
      <text x="32" y="13" font-size="26" text-anchor="middle" dominant-baseline="middle">U</text>
      <rect x="1" y="24" width="62" height="62" rx="5" ry="5" fill="white" stroke="black" stroke-width="2"/>
      <line x1="21.3" y1="25.1" x2="21.3" y2="85" stroke="lightgray" stroke-width="1" />
      <line x1="42.6" y1="25.1" x2="42.6" y2="85" stroke="lightgray" stroke-width="1" />
      <line x1="2" y1="45.1" x2="61.9" y2="45.1" stroke="lightgray" stroke-width="1" />
      <line x1="2" y1="65" x2="61.9" y2="65" stroke="lightgray" stroke-width="1" />
      <line x1="10.5" y1="35" x2="53.5" y2="35" stroke="black" stroke-width="3" />
      <line x1="10.5" y1="55.0" x2="53.5" y2="55.0" stroke="black" stroke-width="3" />
      <line x1="10.5" y1="74.5" x2="53.5" y2="74.5" stroke="black" stroke-width="3" />
      <polygon points="8,35 18,29 18,41" fill="black" />
    </symbol>

    <!-- U' Move - CORRIGÉ (flèche à droite) -->
    <symbol id="U-prime" viewBox="0 0 64 90">
      <text x="32" y="13" font-size="26" text-anchor="middle" dominant-baseline="middle">U'</text>
      <rect x="1" y="24" width="62" height="62" rx="5" ry="5" fill="white" stroke="black" stroke-width="2"/>
      <line x1="21.3" y1="25.1" x2="21.3" y2="85" stroke="lightgray" stroke-width="1" />
      <line x1="42.6" y1="25.1" x2="42.6" y2="85" stroke="lightgray" stroke-width="1" />
      <line x1="2" y1="45.1" x2="61.9" y2="45.1" stroke="lightgray" stroke-width="1" />
      <line x1="2" y1="65" x2="61.9" y2="65" stroke="lightgray" stroke-width="1" />
      <line x1="10.5" y1="35" x2="53.5" y2="35" stroke="black" stroke-width="3" />
      <line x1="10.5" y1="55.0" x2="53.5" y2="55.0" stroke="black" stroke-width="3" />
      <line x1="10.5" y1="74.5" x2="53.5" y2="74.5" stroke="black" stroke-width="3" />
      <polygon points="56,35 46,29 46,41" fill="black" />
    </symbol>

    <!-- U2 Move - CORRIGÉ (flèches à gauche) -->
    <symbol id="U2" viewBox="0 0 64 90">
      <text x="32" y="13" font-size="26" text-anchor="middle" dominant-baseline="middle">U2</text>
      <rect x="1" y="24" width="62" height="62" rx="5" ry="5" fill="white" stroke="black" stroke-width="2"/>
      <line x1="21.3" y1="25.1" x2="21.3" y2="85" stroke="lightgray" stroke-width="1" />
      <line x1="42.6" y1="25.1" x2="42.6" y2="85" stroke="lightgray" stroke-width="1" />
      <line x1="2" y1="45.1" x2="61.9" y2="45.1" stroke="lightgray" stroke-width="1" />
      <line x1="2" y1="65" x2="61.9" y2="65" stroke="lightgray" stroke-width="1" />
      <line x1="10.5" y1="35" x2="53.5" y2="35" stroke="black" stroke-width="3" />
      <line x1="10.5" y1="55.0" x2="53.5" y2="55.0" stroke="black" stroke-width="3" />
      <line x1="10.5" y1="74.5" x2="53.5" y2="74.5" stroke="black" stroke-width="3" />
      <polygon points="8,35 18,29 18,41" fill="black" />

      <polygon points="16,35 26,29 26,41" fill="black" />
    </symbol>

    <!-- D Move -->
    <symbol id="D" viewBox="0 0 64 90">
      <text x="32" y="13" font-size="26" text-anchor="middle" dominant-baseline="middle">D</text>
      <rect x="1" y="24" width="62" height="62" rx="5" ry="5" fill="white" stroke="black" stroke-width="2"/>
      <line x1="21.3" y1="25.1" x2="21.3" y2="85" stroke="lightgray" stroke-width="1" />
      <line x1="42.6" y1="25.1" x2="42.6" y2="85" stroke="lightgray" stroke-width="1" />
      <line x1="2" y1="45.1" x2="61.9" y2="45.1" stroke="lightgray" stroke-width="1" />
      <line x1="2" y1="65" x2="61.9" y2="65" stroke="lightgray" stroke-width="1" />
       <line x1="10.5" y1="35" x2="53.5" y2="35" stroke="black" stroke-width="3" />
      <line x1="10.5" y1="55.0" x2="53.5" y2="55.0" stroke="black" stroke-width="3" />
      <line x1="10.5" y1="74.5" x2="53.5" y2="74.5" stroke="black" stroke-width="3" />
      <polygon points="56,74.3 46,68.3 46,80.3" fill="black" />
    </symbol>

    <!-- D' Move -->
    <symbol id="D-prime" viewBox="0 0 64 90">
      <text x="32" y="13" font-size="26" text-anchor="middle" dominant-baseline="middle">D'</text>
      <rect x="1" y="24" width="62" height="62" rx="5" ry="5" fill="white" stroke="black" stroke-width="2"/>
      <line x1="21.3" y1="25.1" x2="21.3" y2="85" stroke="lightgray" stroke-width="1" />
      <line x1="42.6" y1="25.1" x2="42.6" y2="85" stroke="lightgray" stroke-width="1" />
      <line x1="2" y1="45.1" x2="61.9" y2="45.1" stroke="lightgray" stroke-width="1" />
      <line x1="2" y1="65" x2="61.9" y2="65" stroke="lightgray" stroke-width="1" />
      <line x1="10.5" y1="35" x2="53.5" y2="35" stroke="black" stroke-width="3" />
      <line x1="10.5" y1="55.0" x2="53.5" y2="55.0" stroke="black" stroke-width="3" />
      <line x1="10.5" y1="74.5" x2="53.5" y2="74.5" stroke="black" stroke-width="3" />
      <polygon points="8,74.3 18,68.3 18,80.3" fill="black" />
    </symbol>

    <!-- D2 Move -->
    <symbol id="D2" viewBox="0 0 64 90">
      <text x="32" y="13" font-size="26" text-anchor="middle" dominant-baseline="middle">D2</text>
      <rect x="1" y="24" width="62" height="62" rx="5" ry="5" fill="white" stroke="black" stroke-width="2"/>
      <line x1="21.3" y1="25.1" x2="21.3" y2="85" stroke="lightgray" stroke-width="1" />
      <line x1="42.6" y1="25.1" x2="42.6" y2="85" stroke="lightgray" stroke-width="1" />
      <line x1="2" y1="45.1" x2="61.9" y2="45.1" stroke="lightgray" stroke-width="1" />
      <line x1="2" y1="65" x2="61.9" y2="65" stroke="lightgray" stroke-width="1" />
      <line x1="10.5" y1="35" x2="53.5" y2="35" stroke="black" stroke-width="3" />
      <line x1="10.5" y1="55.0" x2="53.5" y2="55.0" stroke="black" stroke-width="3" />
      <line x1="10.5" y1="74.5" x2="53.5" y2="74.5" stroke="black" stroke-width="3" />
      <polygon points="48,74.3 38,68.3 38,80.3" fill="black" />
      <polygon points="56,74.3 46,68.3 46,80.3" fill="black" />

    </symbol>

    <!-- F Move -->
    <symbol id="F" viewBox="0 0 64 90">
      <text x="32" y="13" font-size="26" text-anchor="middle" dominant-baseline="middle">F</text>
      <rect x="1" y="24" width="62" height="62" rx="5" ry="5" fill="white" stroke="black" stroke-width="2"/>
      <line x1="21.3" y1="25.1" x2="21.3" y2="85" stroke="lightgray" stroke-width="1" />
      <line x1="42.6" y1="25.1" x2="42.6" y2="85" stroke="lightgray" stroke-width="1" />
      <line x1="2" y1="45.1" x2="61.9" y2="45.1" stroke="lightgray" stroke-width="1" />
      <line x1="2" y1="65" x2="61.9" y2="65" stroke="lightgray" stroke-width="1" />
      <path d="M 32.0 72.92 A 17.92 17.92 0 1 1 49.92 55.0" stroke="black" stroke-width="3" fill="none" />
      <polygon points="49.5,63 43.5,53 55.5,53" fill="black" />
    </symbol>

    <!-- F' Move -->
    <symbol id="F-prime" viewBox="0 0 64 90">
      <text x="32" y="13" font-size="26" text-anchor="middle" dominant-baseline="middle">F'</text>
      <rect x="1" y="24" width="62" height="62" rx="5" ry="5" fill="white" stroke="black" stroke-width="2"/>
      <line x1="21.3" y1="25.1" x2="21.3" y2="85" stroke="lightgray" stroke-width="1" />
      <line x1="42.6" y1="25.1" x2="42.6" y2="85" stroke="lightgray" stroke-width="1" />
      <line x1="2" y1="45.1" x2="61.9" y2="45.1" stroke="lightgray" stroke-width="1" />
      <line x1="2" y1="65" x2="61.9" y2="65" stroke="lightgray" stroke-width="1" />
      <path d="M 32.0 72.92 A 17.92 17.92 0 1 0 14.08 55.0" stroke="black" stroke-width="3" fill="none" />
      <polygon points="14.0,63 8.0,53 20.0,53" fill="black" />
    </symbol>

    <!-- F2 Move -->
    <symbol id="F2" viewBox="0 0 64 90">
      <text x="32" y="13" font-size="26" text-anchor="middle" dominant-baseline="middle">F2</text>
      <rect x="1" y="24" width="62" height="62" rx="5" ry="5" fill="white" stroke="black" stroke-width="2"/>
      <line x1="21.3" y1="25.1" x2="21.3" y2="85" stroke="lightgray" stroke-width="1" />
      <line x1="42.6" y1="25.1" x2="42.6" y2="85" stroke="lightgray" stroke-width="1" />
      <line x1="2" y1="45.1" x2="61.9" y2="45.1" stroke="lightgray" stroke-width="1" />
      <line x1="2" y1="65" x2="61.9" y2="65" stroke="lightgray" stroke-width="1" />
      <path d="M 32.0 72.92 A 17.92 17.92 0 1 1 49.92 55.0" stroke="black" stroke-width="3" fill="none" />
      <polygon points="49.0,57 43.0,47 55.0,47" fill="black" />
      <polygon points="49.5,64 43.5,54 55.5,54" fill="black" />

    </symbol>

    <!-- B Move - NOUVEAU ! (arc horaire, flèche à droite) -->
    <symbol id="B" viewBox="0 0 64 90">
      <text x="32" y="13" font-size="26" text-anchor="middle" dominant-baseline="middle">B</text>
      <rect x="1" y="24" width="62" height="62" rx="5" ry="5" fill="white" stroke="black" stroke-dasharray="4,3"stroke-width="2"/>
      <line x1="21.3" y1="25.1" x2="21.3" y2="85" stroke="lightgray" stroke-width="1" />
      <line x1="42.6" y1="25.1" x2="42.6" y2="85" stroke="lightgray" stroke-width="1" />
      <line x1="2" y1="45.1" x2="61.9" y2="45.1" stroke="lightgray" stroke-width="1" />
      <line x1="2" y1="65" x2="61.9" y2="65" stroke="lightgray" stroke-width="1" />
      <path d="M 32.0 72.92 A 17.92 17.92 0 1 0 14.08 55.0" stroke="black" stroke-width="3" fill="none" />
      <polygon points="14.0,63 8.0,53 20.0,53" fill="black" />
    </symbol>

    <!-- B' Move - NOUVEAU ! (arc antihoraire, flèche à gauche) -->
    <symbol id="B-prime" viewBox="0 0 64 90">
      <text x="32" y="13" font-size="26" text-anchor="middle" dominant-baseline="middle">B'</text>
      <rect x="1" y="24" width="62" height="62" rx="5" ry="5" fill="white" stroke="black" stroke-dasharray="4,3"stroke-width="2"/>
      <line x1="21.3" y1="25.1" x2="21.3" y2="85" stroke="lightgray" stroke-width="1" />
      <line x1="42.6" y1="25.1" x2="42.6" y2="85" stroke="lightgray" stroke-width="1" />
      <line x1="2" y1="45.1" x2="61.9" y2="45.1" stroke="lightgray" stroke-width="1" />
      <line x1="2" y1="65" x2="61.9" y2="65" stroke="lightgray" stroke-width="1" />
      <path d="M 32.0 72.92 A 17.92 17.92 0 1 1 49.92 55.0" stroke="black" stroke-width="3" fill="none" />
      <polygon points="49.5,63 43.5,53 55.5,53" fill="black" />
    </symbol>

    <!-- B2 Move - NOUVEAU ! (arc horaire + 2 flèches à gauche) -->
    <symbol id="B2" viewBox="0 0 64 90">
      <text x="32" y="13" font-size="26" text-anchor="middle" dominant-baseline="middle">B2</text>
      <rect x="1" y="24" width="62" height="62" rx="5" ry="5" fill="white" stroke="black" stroke-dasharray="4,3"stroke-width="2"/>
      <line x1="21.3" y1="25.1" x2="21.3" y2="85" stroke="lightgray" stroke-width="1" />
      <line x1="42.6" y1="25.1" x2="42.6" y2="85" stroke="lightgray" stroke-width="1" />
      <line x1="2" y1="45.1" x2="61.9" y2="45.1" stroke="lightgray" stroke-width="1" />
      <line x1="2" y1="65" x2="61.9" y2="65" stroke="lightgray" stroke-width="1" />
      <path d="M 32.0 72.92 A 17.92 17.92 0 1 0 14.08 55.0" stroke="black" stroke-width="3" fill="none" />
      <polygon points="14.0,57 8.0,47 20.0,47" fill="black" />
      <polygon points="14.0,64 8.0,54 20.0,54" fill="black" />

    </symbol>
  </defs>
</svg>