<svg xmlns="http://www.w3.org/900/svg">
  <defs>
    <!-- R Move -->
    <symbol id="R" viewBox="0 0 64 100">
      <text x="32" y="20" font-size="36" font-weight="700" text-anchor="middle" dominant-baseline="middle" fill="currentColor">R</text>
      <rect x="1" y="34" width="62" height="62" rx="5" ry="5" fill="white" stroke="currentColor" stroke-width="2"/>
      <line x1="21.3" y1="35.1" x2="21.3" y2="95" stroke="lightgray" stroke-width="1" />
      <line x1="42.6" y1="35.1" x2="42.6" y2="95" stroke="lightgray" stroke-width="1" />
      <line x1="2" y1="55.1" x2="61.9" y2="55.1" stroke="lightgray" stroke-width="1" />
      <line x1="2" y1="75" x2="61.9" y2="75" stroke="lightgray" stroke-width="1" />
      <line x1="12" y1="44.5" x2="12" y2="85.5" stroke="currentColor" stroke-width="3" />
      <line x1="32.0" y1="44.5" x2="32.0" y2="85.5" stroke="currentColor" stroke-width="3" />
      <line x1="52.0" y1="44.5" x2="52.0" y2="85.5" stroke="currentColor" stroke-width="3" />
      <polygon points="52.0,40 46.0,50 58.0,50" fill="currentColor" />
    </symbol>
    <!-- R' Move -->
    <symbol id="R-prime" viewBox="0 0 64 100">
      <text x="32" y="20" font-size="36" font-weight="700" text-anchor="middle" dominant-baseline="middle" fill="currentColor">R'</text>
      <rect x="1" y="34" width="62" height="62" rx="5" ry="5" fill="white" stroke="currentColor" stroke-width="2"/>
      <line x1="21.3" y1="35.1" x2="21.3" y2="95" stroke="lightgray" stroke-width="1" />
      <line x1="42.6" y1="35.1" x2="42.6" y2="95" stroke="lightgray" stroke-width="1" />
      <line x1="2" y1="55.1" x2="61.9" y2="55.1" stroke="lightgray" stroke-width="1" />
      <line x1="2" y1="75" x2="61.9" y2="75" stroke="lightgray" stroke-width="1" />
      <line x1="12" y1="44.5" x2="12" y2="85.5" stroke="currentColor" stroke-width="3" />
      <line x1="32.0" y1="44.5" x2="32.0" y2="85.5" stroke="currentColor" stroke-width="3" />
      <line x1="52.0" y1="44.5" x2="52.0" y2="85.5" stroke="currentColor" stroke-width="3" />
      <polygon points="52.0,88 46.0,78 58.0,78" fill="currentColor" />
    </symbol>
    <!-- R2 Move -->
    <symbol id="R2" viewBox="0 0 64 100">
      <text x="32" y="20" font-size="36" font-weight="700" text-anchor="middle" dominant-baseline="middle" fill="currentColor">R2</text>
      <rect x="1" y="34" width="62" height="62" rx="5" ry="5" fill="white" stroke="currentColor" stroke-width="2"/>
      <line x1="21.3" y1="35.1" x2="21.3" y2="95" stroke="lightgray" stroke-width="1" />
      <line x1="42.6" y1="35.1" x2="42.6" y2="95" stroke="lightgray" stroke-width="1" />
      <line x1="2" y1="55.1" x2="61.9" y2="55.1" stroke="lightgray" stroke-width="1" />
      <line x1="2" y1="75" x2="61.9" y2="75" stroke="lightgray" stroke-width="1" />
      <line x1="12" y1="44.5" x2="12" y2="85.5" stroke="currentColor" stroke-width="3" />
      <line x1="32.0" y1="44.5" x2="32.0" y2="85.5" stroke="currentColor" stroke-width="3" />
      <line x1="52.0" y1="44.5" x2="52.0" y2="85.5" stroke="currentColor" stroke-width="3" />
      <polygon points="52.0,40 46.0,50 58.0,50" fill="currentColor" />
      <polygon points="52.0,48 46.0,58 58.0,58" fill="currentColor" />
    </symbol>
    <!-- L Move -->
    <symbol id="L" viewBox="0 0 64 100">
      <text x="32" y="20" font-size="36" font-weight="700" text-anchor="middle" dominant-baseline="middle" fill="currentColor">L</text>
      <rect x="1" y="34" width="62" height="62" rx="5" ry="5" fill="white" stroke="currentColor" stroke-width="2"/>
      <line x1="21.3" y1="35.1" x2="21.3" y2="95" stroke="lightgray" stroke-width="1" />
      <line x1="42.6" y1="35.1" x2="42.6" y2="95" stroke="lightgray" stroke-width="1" />
      <line x1="2" y1="55.1" x2="61.9" y2="55.1" stroke="lightgray" stroke-width="1" />
      <line x1="2" y1="75" x2="61.9" y2="75" stroke="lightgray" stroke-width="1" />
      <line x1="12" y1="44.5" x2="12" y2="85.5" stroke="currentColor" stroke-width="3" />
      <line x1="32.0" y1="44.5" x2="32.0" y2="85.5" stroke="currentColor" stroke-width="3" />
      <line x1="52.0" y1="44.5" x2="52.0" y2="85.5" stroke="currentColor" stroke-width="3" />
      <polygon points="12,88 6,78 18,78" fill="currentColor" />
    </symbol>
    <!-- L' Move -->
    <symbol id="L-prime" viewBox="0 0 64 100">
      <text x="32" y="20" font-size="36" font-weight="700" text-anchor="middle" dominant-baseline="middle" fill="currentColor">L'</text>
      <rect x="1" y="34" width="62" height="62" rx="5" ry="5" fill="white" stroke="currentColor" stroke-width="2"/>
      <line x1="21.3" y1="35.1" x2="21.3" y2="95" stroke="lightgray" stroke-width="1" />
      <line x1="42.6" y1="35.1" x2="42.6" y2="95" stroke="lightgray" stroke-width="1" />
      <line x1="2" y1="55.1" x2="61.9" y2="55.1" stroke="lightgray" stroke-width="1" />
      <line x1="2" y1="75" x2="61.9" y2="75" stroke="lightgray" stroke-width="1" />
      <line x1="12" y1="44.5" x2="12" y2="85.5" stroke="currentColor" stroke-width="3" />
      <line x1="32.0" y1="44.5" x2="32.0" y2="85.5" stroke="currentColor" stroke-width="3" />
      <line x1="52.0" y1="44.5" x2="52.0" y2="85.5" stroke="currentColor" stroke-width="3" />
      <polygon points="12,40 6,50 18,50" fill="currentColor" />
    </symbol>
    <!-- L2 Move -->
    <symbol id="L2" viewBox="0 0 64 100">
      <text x="32" y="20" font-size="36" font-weight="700" text-anchor="middle" dominant-baseline="middle" fill="currentColor">L2</text>
      <rect x="1" y="34" width="62" height="62" rx="5" ry="5" fill="white" stroke="currentColor" stroke-width="2"/>
      <line x1="21.3" y1="35.1" x2="21.3" y2="95" stroke="lightgray" stroke-width="1" />
      <line x1="42.6" y1="35.1" x2="42.6" y2="95" stroke="lightgray" stroke-width="1" />
      <line x1="2" y1="45.1" x2="61.9" y2="55.1" stroke="lightgray" stroke-width="1" />
      <line x1="2" y1="65" x2="61.9" y2="65" stroke="lightgray" stroke-width="1" />
      <line x1="12" y1="44.5" x2="12" y2="85.5" stroke="currentColor" stroke-width="3" />
      <line x1="32.0" y1="44.5" x2="32.0" y2="85.5" stroke="currentColor" stroke-width="3" />
      <line x1="52.0" y1="44.5" x2="52.0" y2="85.5" stroke="currentColor" stroke-width="3" />
      <polygon points="12,40 6,50 18,50" fill="currentColor" />
      <polygon points="12,48 6,58 18,58" fill="currentColor" />
    </symbol>
    <!-- U Move -->
    <symbol id="U" viewBox="0 0 64 100">
      <text x="32" y="20" font-size="36" font-weight="700" text-anchor="middle" dominant-baseline="middle" fill="currentColor">U</text>
      <rect x="1" y="34" width="62" height="62" rx="5" ry="5" fill="white" stroke="currentColor" stroke-width="2"/>
      <line x1="21.3" y1="35.1" x2="21.3" y2="95" stroke="lightgray" stroke-width="1" />
      <line x1="42.6" y1="35.1" x2="42.6" y2="95" stroke="lightgray" stroke-width="1" />
      <line x1="2" y1="55.1" x2="61.9" y2="55.1" stroke="lightgray" stroke-width="1" />
      <line x1="2" y1="75" x2="61.9" y2="75" stroke="lightgray" stroke-width="1" />
      <line x1="10.5" y1="45" x2="53.5" y2="45" stroke="currentColor" stroke-width="3" />
      <line x1="10.5" y1="65.0" x2="53.5" y2="65.0" stroke="currentColor" stroke-width="3" />
      <line x1="10.5" y1="84.5" x2="53.5" y2="84.5" stroke="currentColor" stroke-width="3" />
      <polygon points="8,45 18,39 18,51" fill="currentColor" />
    </symbol>
    <!-- U' Move -->
    <symbol id="U-prime" viewBox="0 0 64 100">
      <text x="32" y="20" font-size="36" font-weight="700" text-anchor="middle" dominant-baseline="middle" fill="currentColor">U'</text>
      <rect x="1" y="34" width="62" height="62" rx="5" ry="5" fill="white" stroke="currentColor" stroke-width="2"/>
      <line x1="21.3" y1="35.1" x2="21.3" y2="95" stroke="lightgray" stroke-width="1" />
      <line x1="42.6" y1="35.1" x2="42.6" y2="95" stroke="lightgray" stroke-width="1" />
      <line x1="2" y1="55.1" x2="61.9" y2="55.1" stroke="lightgray" stroke-width="1" />
      <line x1="2" y1="75" x2="61.9" y2="75" stroke="lightgray" stroke-width="1" />
      <line x1="10.5" y1="45" x2="53.5" y2="45" stroke="currentColor" stroke-width="3" />
      <line x1="10.5" y1="65.0" x2="53.5" y2="65.0" stroke="currentColor" stroke-width="3" />
      <line x1="10.5" y1="84.5" x2="53.5" y2="84.5" stroke="currentColor" stroke-width="3" />
      <polygon points="56,45 46,39 46,51" fill="currentColor" />
    </symbol>
    <!-- U2 Move -->
    <symbol id="U2" viewBox="0 0 64 100">
      <text x="32" y="20" font-size="36" font-weight="700" text-anchor="middle" dominant-baseline="middle" fill="currentColor">U2</text>
      <rect x="1" y="34" width="62" height="62" rx="5" ry="5" fill="white" stroke="currentColor" stroke-width="2"/>
      <line x1="21.3" y1="35.1" x2="21.3" y2="95" stroke="lightgray" stroke-width="1" />
      <line x1="42.6" y1="35.1" x2="42.6" y2="95" stroke="lightgray" stroke-width="1" />
      <line x1="2" y1="55.1" x2="61.9" y2="55.1" stroke="lightgray" stroke-width="1" />
      <line x1="2" y1="75" x2="61.9" y2="75" stroke="lightgray" stroke-width="1" />
      <line x1="10.5" y1="45" x2="53.5" y2="45" stroke="currentColor" stroke-width="3" />
      <line x1="10.5" y1="65.0" x2="53.5" y2="65.0" stroke="currentColor" stroke-width="3" />
      <line x1="10.5" y1="84.5" x2="53.5" y2="84.5" stroke="currentColor" stroke-width="3" />
      <polygon points="8,45 18,39 18,51" fill="currentColor" />
      <polygon points="16,45 26,39 26,51" fill="currentColor" />
    </symbol>
    <!-- D Move -->
    <symbol id="D" viewBox="0 0 64 100">
      <text x="32" y="20" font-size="36" font-weight="700" text-anchor="middle" dominant-baseline="middle" fill="currentColor">D</text>
      <rect x="1" y="34" width="62" height="62" rx="5" ry="5" fill="white" stroke="currentColor" stroke-width="2"/>
      <line x1="21.3" y1="35.1" x2="21.3" y2="95" stroke="lightgray" stroke-width="1" />
      <line x1="42.6" y1="35.1" x2="42.6" y2="95" stroke="lightgray" stroke-width="1" />
      <line x1="2" y1="45.1" x2="61.9" y2="55.1" stroke="lightgray" stroke-width="1" />
      <line x1="2" y1="65" x2="61.9" y2="65" stroke="lightgray" stroke-width="1" />
      <line x1="10.5" y1="45" x2="53.5" y2="45" stroke="currentColor" stroke-width="3" />
      <line x1="10.5" y1="65.0" x2="53.5" y2="65.0" stroke="currentColor" stroke-width="3" />
      <line x1="10.5" y1="84.5" x2="53.5" y2="84.5" stroke="currentColor" stroke-width="3" />
      <polygon points="56,84.3 46,78.3 46,90.3" fill="currentColor" />
    </symbol>
    <!-- D' Move -->
    <symbol id="D-prime" viewBox="0 0 64 100">
      <text x="32" y="20" font-size="36" font-weight="700" text-anchor="middle" dominant-baseline="middle" fill="currentColor">D'</text>
      <rect x="1" y="34" width="62" height="62" rx="5" ry="5" fill="white" stroke="currentColor" stroke-width="2"/>
      <line x1="21.3" y1="35.1" x2="21.3" y2="95" stroke="lightgray" stroke-width="1" />
      <line x1="42.6" y1="35.1" x2="42.6" y2="95" stroke="lightgray" stroke-width="1" />
      <line x1="2" y1="45.1" x2="61.9" y2="55.1" stroke="lightgray" stroke-width="1" />
      <line x1="2" y1="65" x2="61.9" y2="65" stroke="lightgray" stroke-width="1" />
      <line x1="10.5" y1="45" x2="53.5" y2="45" stroke="currentColor" stroke-width="3" />
      <line x1="10.5" y1="65.0" x2="53.5" y2="65.0" stroke="currentColor" stroke-width="3" />
      <line x1="10.5" y1="84.5" x2="53.5" y2="84.5" stroke="currentColor" stroke-width="3" />
      <polygon points="8,84.3 18,78.3 18,90.3" fill="currentColor" />
    </symbol>
    <!-- D2 Move -->
    <symbol id="D2" viewBox="0 0 64 100">
      <text x="32" y="20" font-size="36" font-weight="700" text-anchor="middle" dominant-baseline="middle" fill="currentColor">D2</text>
      <rect x="1" y="34" width="62" height="62" rx="5" ry="5" fill="white" stroke="currentColor" stroke-width="2"/>
      <line x1="21.3" y1="35.1" x2="21.3" y2="95" stroke="lightgray" stroke-width="1" />
      <line x1="42.6" y1="35.1" x2="42.6" y2="95" stroke="lightgray" stroke-width="1" />
      <line x1="2" y1="45.1" x2="61.9" y2="55.1" stroke="lightgray" stroke-width="1" />
      <line x1="2" y1="65" x2="61.9" y2="65" stroke="lightgray" stroke-width="1" />
      <line x1="10.5" y1="45" x2="53.5" y2="45" stroke="currentColor" stroke-width="3" />
      <line x1="10.5" y1="65.0" x2="53.5" y2="65.0" stroke="currentColor" stroke-width="3" />
      <line x1="10.5" y1="84.5" x2="53.5" y2="84.5" stroke="currentColor" stroke-width="3" />
      <polygon points="48,84.3 38,78.3 38,90.3" fill="currentColor" />
      <polygon points="56,84.3 46,78.3 46,90.3" fill="currentColor" />
    </symbol>
    <!-- F Move -->
    <symbol id="F" viewBox="0 0 64 100">
      <text x="32" y="20" font-size="36" font-weight="700" text-anchor="middle" dominant-baseline="middle" fill="currentColor">F</text>
      <rect x="1" y="34" width="62" height="62" rx="5" ry="5" fill="white" stroke="currentColor" stroke-width="2"/>
      <line x1="21.3" y1="35.1" x2="21.3" y2="95" stroke="lightgray" stroke-width="1" />
      <line x1="42.6" y1="35.1" x2="42.6" y2="95" stroke="lightgray" stroke-width="1" />
      <line x1="2" y1="55.1" x2="61.9" y2="55.1" stroke="lightgray" stroke-width="1" />
      <line x1="2" y1="75" x2="61.9" y2="75" stroke="lightgray" stroke-width="1" />
      <path d="M 32.0 82.92 A 17.92 17.92 0 1 1 49.92 65.0" stroke="currentColor" stroke-width="3" fill="none" />
      <polygon points="49.5,73 43.5,63 55.5,63" fill="currentColor" />
    </symbol>
    <!-- F' Move -->
    <symbol id="F-prime" viewBox="0 0 64 100">
      <text x="32" y="20" font-size="36" font-weight="700" text-anchor="middle" dominant-baseline="middle" fill="currentColor">F'</text>
      <rect x="1" y="34" width="62" height="62" rx="5" ry="5" fill="white" stroke="currentColor" stroke-width="2"/>
      <line x1="21.3" y1="35.1" x2="21.3" y2="95" stroke="lightgray" stroke-width="1" />
      <line x1="42.6" y1="35.1" x2="42.6" y2="95" stroke="lightgray" stroke-width="1" />
      <line x1="2" y1="55.1" x2="61.9" y2="55.1" stroke="lightgray" stroke-width="1" />
      <line x1="2" y1="75" x2="61.9" y2="75" stroke="lightgray" stroke-width="1" />
      <path d="M 32.0 82.92 A 17.92 17.92 0 1 0 14.08 65.0" stroke="currentColor" stroke-width="3" fill="none" />
      <polygon points="14.0,73 8.0,63 20.0,63" fill="currentColor" />
    </symbol>
    <!-- F2 Move -->
    <symbol id="F2" viewBox="0 0 64 100">
      <text x="32" y="20" font-size="36" font-weight="700" text-anchor="middle" dominant-baseline="middle" fill="currentColor">F2</text>
      <rect x="1" y="34" width="62" height="62" rx="5" ry="5" fill="white" stroke="currentColor" stroke-width="2"/>
      <line x1="21.3" y1="35.1" x2="21.3" y2="95" stroke="lightgray" stroke-width="1" />
      <line x1="42.6" y1="35.1" x2="42.6" y2="95" stroke="lightgray" stroke-width="1" />
      <path d="M 32.0 82.92 A 17.92 17.92 0 1 1 49.92 65.0" stroke="currentColor" stroke-width="3" fill="none" />
      <polygon points="49.0,67 43.0,57 55.0,57" fill="currentColor" />
      <polygon points="49.5,74 43.5,64 55.5,64" fill="currentColor" />
    </symbol>
    <!-- B Move -->
    <symbol id="B" viewBox="0 0 64 100">
      <text x="32" y="20" font-size="36" font-weight="700" text-anchor="middle" dominant-baseline="middle" fill="currentColor">B</text>
      <rect x="1" y="34" width="62" height="62" rx="5" ry="5" fill="white" stroke="currentColor" stroke-dasharray="4,3" stroke-width="2"/>
      <line x1="21.3" y1="35.1" x2="21.3" y2="95" stroke="lightgray" stroke-width="1" />
      <line x1="42.6" y1="35.1" x2="42.6" y2="95" stroke="lightgray" stroke-width="1" />
      <line x1="2" y1="45.1" x2="61.9" y2="55.1" stroke="lightgray" stroke-width="1" />
      <line x1="2" y1="65" x2="61.9" y2="65" stroke="lightgray" stroke-width="1" />
      <path d="M 32.0 82.92 A 17.92 17.92 0 1 0 14.08 65.0" stroke="currentColor" stroke-width="3" fill="none" />
      <polygon points="14.0,73 8.0,63 20.0,63" fill="currentColor" />
    </symbol>
    <!-- B' Move -->
    <symbol id="B-prime" viewBox="0 0 64 100">
      <text x="32" y="20" font-size="36" font-weight="700" text-anchor="middle" dominant-baseline="middle" fill="currentColor">B'</text>
      <rect x="1" y="34" width="62" height="62" rx="5" ry="5" fill="white" stroke="currentColor" stroke-dasharray="4,3" stroke-width="2"/>
      <line x1="21.3" y1="35.1" x2="21.3" y2="95" stroke="lightgray" stroke-width="1" />
      <line x1="42.6" y1="35.1" x2="42.6" y2="95" stroke="lightgray" stroke-width="1" />
      <line x1="2" y1="45.1" x2="61.9" y2="55.1" stroke="lightgray" stroke-width="1" />
      <line x1="2" y1="65" x2="61.9" y2="65" stroke="lightgray" stroke-width="1" />
      <path d="M 32.0 72.92 A 17.92 17.92 0 1 1 49.92 55.0" stroke="currentColor" stroke-width="3" fill="none" />
      <polygon points="49.5,63 43.5,53 55.5,53" fill="currentColor" />
    </symbol>
    <!-- B2 Move -->
    <symbol id="B2" viewBox="0 0 64 100">
      <text x="32" y="20" font-size="36" font-weight="700" text-anchor="middle" dominant-baseline="middle" fill="currentColor">B2</text>
      <rect x="1" y="34" width="62" height="62" rx="5" ry="5" fill="white" stroke="currentColor" stroke-dasharray="4,3" stroke-width="2"/>
      <line x1="21.3" y1="35.1" x2="21.3" y2="95" stroke="lightgray" stroke-width="1" />
      <line x1="42.6" y1="35.1" x2="42.6" y2="95" stroke="lightgray" stroke-width="1" />
      <line x1="2" y1="45.1" x2="61.9" y2="55.1" stroke="lightgray" stroke-width="1" />
      <line x1="2" y1="65" x2="61.9" y2="65" stroke="lightgray" stroke-width="1" />
      <path d="M 32.0 72.92 A 17.92 17.92 0 1 0 14.08 55.0" stroke="currentColor" stroke-width="3" fill="none" />
      <polygon points="14.0,57 8.0,47 20.0,47" fill="currentColor" />
      <polygon points="14.0,64 8.0,54 20.0,54" fill="currentColor" />
    </symbol>
  </defs>
</svg>